<?xml version="1.0" encoding="utf-8"?>
<!-- Generator: Adobe Illustrator 16.0.0, SVG Export Plug-In . SVG Version: 6.00 Build 0)  -->
<!DOCTYPE svg PUBLIC "-//W3C//DTD SVG 1.1//EN" "http://www.w3.org/Graphics/SVG/1.1/DTD/svg11.dtd">
<svg version="1.1" id="Layer_1" xmlns="http://www.w3.org/2000/svg" xmlns:xlink="http://www.w3.org/1999/xlink" x="0px" y="0px"
	 width="335.9px" height="78.6px" viewBox="0 0 335.9 78.6" enable-background="new 0 0 335.9 78.6" xml:space="preserve">
<g>
	
		<polygon fill-rule="evenodd" clip-rule="evenodd" fill="#5FB2E5" stroke="#5FB2E5" stroke-linecap="round" stroke-linejoin="round" stroke-miterlimit="10" points="
		36.9,78.1 36.9,65.9 47.4,71.9 49.3,68.6 36.9,61.3 36.9,42.6 52.9,52 52.9,66.7 56.3,66.7 56.3,54.2 67.8,60.3 69.9,57 58.4,50.9 
		69.9,44.8 67.8,41.4 54.6,48.6 38.8,39.3 54.6,30 67.8,37.1 69.9,33.8 58.4,27.7 69.9,21.6 67.8,18.2 56.3,24.3 56.3,11.8 
		52.9,11.8 52.9,26.5 36.9,35.9 36.9,17.2 49.3,10 47.3,6.6 36.9,12.7 36.9,0.5 33.5,0.5 33.5,12.7 22.4,6.6 20.3,10 33.5,17.2 
		33.5,35.9 16.4,26.5 16.4,11.8 13,11.8 13,24.3 2.4,18.2 0.5,21.6 11.1,27.7 0.5,33.8 2.4,37.1 14.7,30 31.5,39.3 14.7,48.6 
		2.4,41.4 0.5,44.8 11.1,50.9 0.5,57 2.4,60.3 13,54.2 13,66.7 16.4,66.7 16.4,52 33.5,42.6 33.5,61.3 20.3,68.6 22.3,71.9 
		33.5,65.9 33.5,78.1 	"/>
</g>
<g>
	<polygon fill-rule="evenodd" clip-rule="evenodd" fill="#1F92DE" points="105.8,38.1 100.2,52.5 87.4,17.4 77.9,17.4 96.2,62.5 
		103.6,62.5 111.4,43.6 119.3,62.5 126.7,62.5 145.1,17.4 135.5,17.4 122.7,52.5 117,38.1 124.7,17.4 116.5,17.4 111.4,32.6 
		106.4,17.4 98.2,17.4 	"/>
	<rect x="150.6" y="17.4" fill-rule="evenodd" clip-rule="evenodd" fill="#1F92DE" width="8.8" height="45.1"/>
	<polygon fill-rule="evenodd" clip-rule="evenodd" fill="#1F92DE" points="201.9,62.5 209,62.5 209,17.4 200.2,17.4 200.2,47 
		176.6,17.4 169.8,17.4 169.8,62.5 178.6,62.5 178.6,33.7 	"/>
	<polygon fill-rule="evenodd" clip-rule="evenodd" fill="#1F92DE" points="253,17.4 215.3,17.4 215.3,25 229.8,25 229.8,62.5 
		238.5,62.5 238.5,25 253,25 	"/>
	<path fill-rule="evenodd" clip-rule="evenodd" fill="#1F92DE" d="M307.8,25h10.7c0.8,0,1.5,0.2,2.3,0.5c0.8,0.4,1.4,0.9,2,1.5
		c0.6,0.7,1,1.5,1.4,2.3c0.3,0.9,0.5,1.9,0.5,2.9c0,1-0.1,2-0.4,2.9c-0.3,0.9-0.7,1.7-1.2,2.3c-0.5,0.7-1.1,1.2-1.8,1.6
		c-0.7,0.4-1.4,0.6-2.3,0.6h-11V25z M307.8,62.5V47.3h8.7l9.5,15.2h9.9l-10.6-17c2.5-1.1,4.5-2.8,6-5.2c1.5-2.4,2.2-5.1,2.2-8
		c0-1.8-0.4-3.6-1.1-5.4c-0.7-1.8-1.7-3.4-3-4.8s-2.8-2.6-4.6-3.4c-1.8-0.9-3.7-1.3-5.8-1.3h-20v45.1H307.8z"/>
</g>
<g>
	<polygon fill-rule="evenodd" clip-rule="evenodd" fill="#5FB2E5" points="268.8,48.7 268.8,38.1 288.2,38.1 288.2,33.4 268.8,33.4 
		268.8,22.4 291.3,22.4 291.3,17.3 259.8,17.3 259.8,53.7 291.9,53.7 291.9,48.7 	"/>
</g>
<rect x="259.2" y="56.5" fill-rule="evenodd" clip-rule="evenodd" fill="#5FB2E6" width="33" height="6.2"/>
</svg>
