<?xml version="1.0" encoding="utf-8"?>
<!-- Generator: Adobe Illustrator 16.0.0, SVG Export Plug-In . SVG Version: 6.00 Build 0)  -->
<!DOCTYPE svg PUBLIC "-//W3C//DTD SVG 1.1//EN" "http://www.w3.org/Graphics/SVG/1.1/DTD/svg11.dtd">
<svg version="1.1" id="Layer_1" xmlns="http://www.w3.org/2000/svg" xmlns:xlink="http://www.w3.org/1999/xlink" x="0px" y="0px"
	 width="340px" height="169.5px" viewBox="0 0 340 169.5" enable-background="new 0 0 340 169.5" xml:space="preserve">
<g>
	
		<polygon fill-rule="evenodd" clip-rule="evenodd" fill="#5FB2E5" stroke="#5FB2E5" stroke-width="0.7499" stroke-linecap="round" stroke-linejoin="round" stroke-miterlimit="10" points="
		170.7,102.7 170.7,86.6 184.5,94.6 187,90.2 170.7,80.6 170.7,55.8 191.7,68.2 191.7,87.7 196.2,87.7 196.2,71.1 211.4,79.3 
		214.2,74.8 199,66.7 214.2,58.7 211.4,54.1 194,63.7 173.2,51.4 194,39 211.4,48.5 214.2,44.1 199,36 214.2,27.9 211.4,23.5 
		196.2,31.5 196.2,15 191.7,15 191.7,34.5 170.7,46.9 170.7,22.1 186.9,12.6 184.4,8 170.7,16.2 170.7,0 166.2,0 166.2,16.2 
		151.5,8 148.8,12.6 166.2,22.1 166.2,46.9 143.7,34.5 143.7,15 139.2,15 139.2,31.5 125.3,23.5 122.7,27.9 136.7,36 122.7,44.1 
		125.3,48.5 141.4,39 163.5,51.4 141.4,63.7 125.3,54.1 122.7,58.7 136.7,66.7 122.7,74.8 125.3,79.3 139.2,71.1 139.2,87.7 
		143.7,87.7 143.7,68.2 166.2,55.8 166.2,80.6 148.7,90.2 151.4,94.6 166.2,86.6 166.2,102.7 	"/>
</g>
<polygon fill-rule="evenodd" clip-rule="evenodd" fill="#1F92DE" stroke="#1F92DE" stroke-width="0.7499" stroke-linecap="round" stroke-linejoin="round" stroke-miterlimit="10" points="
	36.9,136.8 29.5,155.8 12.5,109.3 0,109.3 24.2,169.1 33.9,169.1 44.3,144.1 54.6,169.1 64.3,169.1 88.6,109.3 76,109.3 59.1,155.8 
	51.6,136.8 61.7,109.3 51,109.3 44.3,129.4 37.5,109.3 26.9,109.3 "/>
<rect x="95.9" y="109.3" fill-rule="evenodd" clip-rule="evenodd" fill="#1F92DE" stroke="#1F92DE" stroke-width="0.7499" stroke-linecap="round" stroke-linejoin="round" stroke-miterlimit="10" width="11.6" height="59.7"/>
<polygon fill-rule="evenodd" clip-rule="evenodd" fill="#1F92DE" stroke="#1F92DE" stroke-width="0.7499" stroke-linecap="round" stroke-linejoin="round" stroke-miterlimit="10" points="
	163.4,169.1 172.8,169.1 172.8,109.3 161.2,109.3 161.2,148.6 130.1,109.3 121.1,109.3 121.1,169.1 132.7,169.1 132.7,130.9 "/>
<polygon fill-rule="evenodd" clip-rule="evenodd" fill="#1F92DE" stroke="#1F92DE" stroke-width="0.7499" stroke-linecap="round" stroke-linejoin="round" stroke-miterlimit="10" points="
	230.7,109.3 181.1,109.3 181.1,119.4 200.1,119.4 200.1,169.1 211.7,169.1 211.7,119.4 230.7,119.4 "/>
<path fill-rule="evenodd" clip-rule="evenodd" fill="#1F92DE" stroke="#1F92DE" stroke-width="0.7499" stroke-linecap="round" stroke-linejoin="round" stroke-miterlimit="10" d="
	M303,119.4h14c1,0,2,0.2,3,0.7c1,0.5,1.9,1.2,2.6,2s1.4,1.9,1.8,3.1c0.5,1.2,0.7,2.5,0.7,3.9c0,1.4-0.2,2.6-0.6,3.8
	c-0.4,1.2-0.9,2.2-1.6,3.1c-0.7,0.9-1.5,1.6-2.4,2.1c-0.9,0.5-1.9,0.8-3,0.8H303V119.4z M303,169.1V149h11.4l12.5,20.1H340l-14-22.5
	c3.3-1.4,5.9-3.7,7.8-6.8c1.9-3.2,2.9-6.7,2.9-10.6c0-2.4-0.5-4.8-1.4-7.2c-1-2.4-2.3-4.5-4-6.4c-1.7-1.9-3.7-3.4-6-4.5
	c-2.3-1.1-4.9-1.7-7.6-1.7h-26.4v59.7H303z"/>
<g>
	
		<polygon fill-rule="evenodd" clip-rule="evenodd" fill="#5FB2E5" stroke="#5FB2E6" stroke-width="0.7499" stroke-linecap="round" stroke-linejoin="round" stroke-miterlimit="10" points="
		251.5,150.8 251.5,136.8 277.2,136.8 277.2,130.6 251.5,130.6 251.5,115.9 281.2,115.9 281.2,109.2 239.7,109.2 239.7,157.5 
		282,157.5 282,150.8 	"/>
</g>
<rect x="238.9" y="161.2" fill-rule="evenodd" clip-rule="evenodd" fill="#5FB2E6" stroke="#5FB2E6" stroke-width="0.7499" stroke-linecap="round" stroke-linejoin="round" stroke-miterlimit="10" width="43.5" height="8.3"/>
</svg>
