<?xml version="1.0" encoding="utf-8"?>
<!-- Generator: Adobe Illustrator 16.0.0, SVG Export Plug-In . SVG Version: 6.00 Build 0)  -->
<!DOCTYPE svg PUBLIC "-//W3C//DTD SVG 1.1//EN" "http://www.w3.org/Graphics/SVG/1.1/DTD/svg11.dtd">
<svg version="1.1" id="Layer_1" xmlns="http://www.w3.org/2000/svg" xmlns:xlink="http://www.w3.org/1999/xlink" x="0px" y="0px"
	 width="92.2px" height="103.5px" viewBox="0 0 92.2 103.5" enable-background="new 0 0 92.2 103.5" xml:space="preserve">
<g>
	
		<polygon fill-rule="evenodd" clip-rule="evenodd" fill="#5FB2E5" stroke="#5FB2E5" stroke-width="0.7499" stroke-linecap="round" stroke-linejoin="round" stroke-miterlimit="10" points="
		48.4,103.1 48.4,86.9 62.2,95 64.7,90.6 48.4,81 48.4,56.2 69.4,68.6 69.4,88.1 73.9,88.1 73.9,71.5 89.1,79.7 91.9,75.2 
		76.7,67.1 91.9,59 89,54.5 71.6,64.1 50.9,51.7 71.6,39.4 89.1,48.9 91.9,44.5 76.7,36.4 91.9,28.3 89,23.8 73.9,31.9 73.9,15.4 
		69.4,15.4 69.4,34.9 48.4,47.3 48.4,22.5 64.6,12.9 62.1,8.4 48.4,16.5 48.4,0.4 43.9,0.4 43.9,16.5 29.2,8.4 26.5,12.9 43.9,22.5 
		43.9,47.3 21.4,34.9 21.4,15.4 16.9,15.4 16.9,31.9 2.9,23.8 0.4,28.3 14.3,36.4 0.4,44.5 2.9,48.9 19.1,39.4 41.2,51.7 19.1,64.1 
		2.9,54.5 0.4,59 14.3,67.1 0.4,75.2 2.9,79.7 16.9,71.5 16.9,88.1 21.4,88.1 21.4,68.6 43.9,56.2 43.9,81 26.4,90.6 29.1,95 
		43.9,86.9 43.9,103.1 	"/>
</g>
</svg>
